<svg width="146" height="44" xmlns="http://www.w3.org/2000/svg"><path d="M78 22a6.42 6.42 0 00-.12 1.42c0 .52.04.58.12 1.58h-4.48a2.36 2.36 0 01-2.25 2.16c-1.74 0-2.38-1.39-2.38-3.75 0-1.74.44-3.74 2.49-3.74a2.28 2.28 0 012 2.33H78zm7.69-2.33c2.13 0 2.43 2.12 2.43 3.71 0 1.59-.3 3.74-2.43 3.74-2.13 0-2.44-2.16-2.44-3.74s.31-3.71 2.44-3.71zM44 28c-1.77 0-2.73-2-2.88-3H51v2h-4.65c-.47 0-1.46 1-2.35 1zm-.06-8.61c1.58 0 2.61.61 2.61 2.61h-5.4c.27-2 1.24-2.61 2.79-2.61zm81.06 0c1.54 0 2.55.61 2.59 2.61h-5.39c.28-2 1.25-2.61 2.8-2.61zM0 0h146v44H0V0zm57 31l.01-20h-6v9.74c-1-3.27-3.29-5.09-7.41-5.09a7.26 7.26 0 00-6.73 4L38 16h-5.68l-2 9h-.11l-1.94-9h-5.09l-1.83 9h-.08l-2.16-9h-5.65l4.49 15h5.56l2.16-9h.08l2.1 9h5.57L36 22.37a7.08 7.08 0 00-.08 1.07c0 4.9 3.33 7.68 7.92 7.68C47 31.12 50 29.81 51 27v4h6zm68-3c-1.76 0-2.72-2-2.91-2.99h10.6c-.02-6-2.62-9.14-8.16-9.14a7.54 7.54 0 00-7.57 5.41v-.63c0-2.42-1.11-5-4.77-5a5.36 5.36 0 00-4 1.5 2.86 2.86 0 00-.22.25c-.28.29-.42.49-.53.6a4.27 4.27 0 00-3.87-2.34c-1.99 0-3.6.34-4.73 2.34H99v-2h-5v7.38c0-4.08-2.61-7.71-8-7.71-4 0-6.62 2.03-7.56 4.76-.79-3.32-3.72-4.76-6.9-4.76-4.01 0-7.54 2.38-7.54 6.1V11h-6v20h6.04v-5.79c0 3.92 3.48 5.92 7.43 5.92 3.33 0 6-1.68 7-4.73.96 2.73 3.46 4.73 7.46 4.73 5.4 0 8.07-3.66 8.07-7.74V31h5v-8.21c0-1.56.56-2.72 2-2.72 1.77 0 2 1.33 2 2.72V31h5v-8.21c0-1.56.56-2.72 2-2.72 1.74 0 2 1.33 2 2.72V31h5v-5.28a7.76 7.76 0 007.77 5.63c3.32 0 6.45-1.35 7.58-4.35h-5c-.47 0-1.47 1-2.35 1z" fill="#D4D4D4"/></svg>
