<svg width="60" height="60" xmlns="http://www.w3.org/2000/svg"><path d="M0 0h60v60H0V0zm44.046 47.412l7.996-30.402-9.59-1.055-4.267 16.209a2252.888 2252.888 0 00-3.368-12.69c-.651-2.375-2.233-3.516-4.565-3.516-2.525 0-4.351-.003-4.351-.003h-.02l-4.27 16.222-4.269-16.222-9.575 1.113s5.259 20.024 6.22 23.657c.615 2.326 1.847 3.899 4.198 4.536 2.43.66 7.436 2.15 7.436 2.15l4.276-16.266c1.297 4.93 2.29 8.553 2.678 9.977.58 2.128 1.978 3.482 4.41 4.198 3.289.967 7.06 2.092 7.06 2.092z" fill="#D8D8D8"/></svg>
